<svg width="124" height="29" viewBox="0 0 124 29" fill="none" xmlns="http://www.w3.org/2000/svg">
<path d="M26.52 9.9502C26.88 9.9502 27 10.0802 27 10.4302V18.3502H31.07C31.42 18.3502 31.55 18.4802 31.55 18.8302V19.5302C31.55 19.8802 31.42 20.0102 31.07 20.0102H25.71C25.36 20.0102 25.22 19.8802 25.22 19.5302V10.4302C25.22 10.0802 25.36 9.9502 25.71 9.9502H26.52Z" fill="#696871"/>
<path fill-rule="evenodd" clip-rule="evenodd" d="M39.1001 9.74023C36.5601 9.74023 35.1001 11.1302 35.1001 13.4402V16.5202C35.1001 18.8302 36.5701 20.2202 39.1001 20.2202C41.6301 20.2202 43.1001 18.8302 43.1001 16.5202V13.4402C43.1001 11.1302 41.6401 9.74023 39.1001 9.74023ZM39.1501 11.4402C40.6101 11.4402 41.4201 12.1402 41.4201 13.4402V16.5402C41.4201 17.8202 40.6101 18.5402 39.1501 18.5402C37.6901 18.5402 36.8901 17.8502 36.8901 16.5402V13.4402C36.8901 12.1502 37.6901 11.4402 39.1501 11.4402Z" fill="#696871"/>
<path d="M55.0099 14.5002C55.3999 14.5002 55.4899 14.6302 55.4899 14.9802V16.8802C55.5114 17.7866 55.1217 18.6541 54.4299 19.2402C53.5816 19.9157 52.512 20.2508 51.4299 20.1802C48.8399 20.1802 47.4299 18.7902 47.4299 16.4802V13.3802C47.4299 11.1002 48.8899 9.7002 51.4299 9.7002C53.4299 9.7002 54.7299 10.4902 55.2799 12.0702C55.3423 12.1906 55.3443 12.3333 55.2852 12.4553C55.2262 12.5774 55.113 12.6644 54.9799 12.6902L54.1999 12.9602C53.8599 13.0802 53.7199 13.0102 53.5999 12.6602C53.2592 11.7815 52.3655 11.2461 51.4299 11.3602C49.9599 11.3602 49.1599 12.0702 49.1599 13.3602V16.5402C49.1599 17.8502 49.9699 18.5402 51.4299 18.5402C52.8899 18.5402 53.7899 17.8702 53.7899 16.8902V16.1502H51.6199C51.2599 16.1502 51.1299 16.0102 51.1299 15.6602V14.9802C51.1299 14.6302 51.2599 14.5002 51.6199 14.5002H55.0099Z" fill="#696871"/>
<path fill-rule="evenodd" clip-rule="evenodd" d="M63.6201 9.74023C61.0801 9.74023 59.6201 11.1302 59.6201 13.4402V16.5202C59.6201 18.8302 61.0901 20.2202 63.6201 20.2202C66.1501 20.2202 67.6201 18.8302 67.6201 16.5202V13.4402C67.6201 11.1302 66.1601 9.74023 63.6201 9.74023ZM63.6701 11.4402C65.1201 11.4402 65.9301 12.1402 65.9301 13.4402V16.5402C65.9301 17.8202 65.1301 18.5402 63.6701 18.5402C62.2101 18.5402 61.4001 17.8502 61.4001 16.5402V13.4402C61.4001 12.1502 62.2201 11.4402 63.6701 11.4402Z" fill="#696871"/>
<path d="M72.3301 10.2402C72.3301 10.0202 72.4001 9.9502 72.6201 9.9502H73.0801C73.3001 9.9502 73.3501 10.0202 73.3501 10.2402V19.7202C73.3501 19.9402 73.3501 20.0102 73.0801 20.0102H72.6201C72.4001 20.0102 72.3301 19.9402 72.3301 19.7202V10.2402Z" fill="#696871"/>
<path fill-rule="evenodd" clip-rule="evenodd" d="M85.5999 13.0902C85.5999 11.356 84.1941 9.9502 82.4599 9.9502H78.7299C78.5199 9.9502 78.4399 10.0202 78.4399 10.2402V19.7202C78.4399 19.9402 78.5199 20.0102 78.7299 20.0102H79.1999C79.4099 20.0102 79.4599 19.9402 79.4599 19.7202V16.2302H82.4599C84.1941 16.2302 85.5999 14.8244 85.5999 13.0902ZM84.2579 14.1502C83.8685 14.8247 83.1488 15.2402 82.3699 15.2402H79.3699V10.8802H82.3699C83.1488 10.8802 83.8685 11.2957 84.2579 11.9702C84.6473 12.6447 84.6473 13.4757 84.2579 14.1502Z" fill="#696871"/>
<path d="M93.41 9.74994C94.9955 9.57497 96.5078 10.4612 97.13 11.9299C97.21 12.0899 97.13 12.2199 96.97 12.2999L96.53 12.4999C96.35 12.5699 96.28 12.5599 96.17 12.3699C95.7052 11.2807 94.589 10.6175 93.41 10.7299C91.72 10.7299 90.8 11.3999 90.8 12.5999C90.7798 13.3583 91.3217 14.0154 92.07 14.1399C92.6079 14.3153 93.1655 14.4228 93.73 14.4599C94.4134 14.4964 95.0875 14.6346 95.73 14.8699C96.7454 15.1912 97.3965 16.1803 97.29 17.2399C97.29 19.1099 95.93 20.2399 93.43 20.2399C91.7404 20.4332 90.1449 19.421 89.6 17.8099C89.5643 17.7378 89.5627 17.6534 89.5956 17.5799C89.6284 17.5064 89.6924 17.4514 89.77 17.4299L90.21 17.2699C90.2801 17.2413 90.359 17.2434 90.4274 17.2757C90.4959 17.3081 90.5476 17.3676 90.57 17.4399C91.0291 18.5992 92.1863 19.3275 93.43 19.2399C95.32 19.2399 96.25 18.5799 96.25 17.2399C96.2864 16.5125 95.7916 15.8654 95.08 15.7099C94.5626 15.5556 94.0291 15.4616 93.49 15.4299L92.41 15.2899C92.072 15.2182 91.7382 15.1281 91.41 15.0199C91.0859 14.922 90.7837 14.7624 90.52 14.5499C89.983 14.0636 89.6899 13.3638 89.72 12.6399C89.79 10.8899 91.1 9.74994 93.41 9.74994Z" fill="#696871"/>
<path d="M102.68 16.5902C102.768 18.0582 103.984 19.2035 105.455 19.2035C106.926 19.2035 108.142 18.0582 108.23 16.5902V10.2402C108.23 10.0202 108.3 9.9502 108.52 9.9502H108.98C109.2 9.9502 109.27 10.0202 109.27 10.2402V16.5802C109.27 18.8502 107.93 20.2202 105.46 20.2202C102.99 20.2202 101.65 18.8502 101.65 16.5802V10.2402C101.65 10.0202 101.72 9.9502 101.93 9.9502H102.4C102.61 9.9502 102.68 10.0202 102.68 10.2402V16.5902Z" fill="#696871"/>
<path d="M123.07 9.94998C123.29 9.94998 123.36 10.02 123.36 10.24V19.72C123.36 19.94 123.29 20.01 123.07 20.01H122.65C122.44 20.01 122.37 19.94 122.37 19.72V13.95C122.37 13.1104 122.427 12.2718 122.54 11.44H122.48C122.168 12.2007 121.803 12.9391 121.39 13.65L119.24 17.44C119.186 17.5746 119.055 17.6621 118.91 17.66H118.63C118.483 17.6607 118.35 17.5743 118.29 17.44L116.11 13.61C115.723 12.9092 115.389 12.1805 115.11 11.43H115.05C115.152 12.2695 115.206 13.1143 115.21 13.96V19.72C115.21 19.94 115.14 20.01 114.92 20.01H114.53C114.31 20.01 114.24 19.94 114.24 19.72V10.24C114.24 10.02 114.31 9.94998 114.53 9.94998H114.89C115.059 9.93427 115.219 10.0264 115.29 10.18L118.79 16.4L122.27 10.24C122.38 10.03 122.44 9.99998 122.66 9.99998L123.07 9.94998Z" fill="#696871"/>
<path fill-rule="evenodd" clip-rule="evenodd" d="M2.1 0.93V21.24C2.1 21.4893 2.00096 21.7284 1.82468 21.9047C1.6484 22.081 1.4093 22.18 1.16 22.18H0.94C0.420852 22.18 0 21.7591 0 21.24V0.93C0.00548157 0.414762 0.424733 -2.91566e-05 0.94 1.53718e-09H1.16C1.67527 -2.91566e-05 2.09452 0.414762 2.1 0.93ZM13.6303 13.8046C13.8288 13.6156 14.0962 13.5163 14.37 13.53L14.32 13.55C14.611 13.5203 14.9004 13.6195 15.112 13.8215C15.3236 14.0234 15.4361 14.3079 15.42 14.6V20.1C15.42 20.6799 14.9499 21.15 14.37 21.15C13.7901 21.15 13.32 20.6799 13.32 20.1V14.53C13.3197 14.2559 13.4318 13.9937 13.6303 13.8046ZM16.63 16.7C16.63 16.1477 17.0777 15.7 17.63 15.7C17.9194 15.6734 18.206 15.774 18.4152 15.9756C18.6245 16.1772 18.7357 16.4599 18.72 16.75V17.96C18.72 18.5371 18.2521 19.005 17.675 19.005C17.0979 19.005 16.63 18.5371 16.63 17.96V16.7ZM8.73 25.02V17.79C8.41729 18.0277 8.03264 18.1512 7.64 18.14C7.27983 18.1311 6.93096 18.0125 6.64 17.8V25.02C6.64 25.5971 7.10786 26.065 7.685 26.065C8.26214 26.065 8.73 25.5971 8.73 25.02ZM4.37 20.53C4.01017 20.5192 3.66183 20.4008 3.37 20.19V27.44C3.37 28.0199 3.8401 28.49 4.42 28.49C4.9999 28.49 5.47 28.0199 5.47 27.44V20.24C5.14345 20.4511 4.75816 20.5526 4.37 20.53ZM11.05 15.67C10.6734 15.6674 10.3067 15.5487 10 15.33V22.6C10 23.1799 10.4701 23.65 11.05 23.65C11.6299 23.65 12.1 23.1799 12.1 22.6V15.34C11.7827 15.5763 11.3955 15.6995 11 15.69L11.05 15.67ZM4.48 19.76H4.26C3.74085 19.76 3.32 19.3391 3.32 18.82V3.35C3.32548 2.83476 3.74473 2.41997 4.26 2.42H4.48C4.99527 2.41997 5.41452 2.83476 5.42 3.35V18.84C5.42 19.3591 4.99915 19.78 4.48 19.78V19.76ZM7.56 17.38H7.79C8.30363 17.38 8.72 16.9636 8.72 16.45V5.75C8.72003 5.23473 8.30524 4.81548 7.79 4.81H7.56C7.31161 4.80999 7.07353 4.90934 6.89883 5.08592C6.72413 5.26249 6.62733 5.50162 6.63 5.75V16.45C6.63 16.9636 7.04638 17.38 7.56 17.38ZM11.1 14.93H10.89C10.3747 14.93 9.95548 14.5152 9.95 14V8.24C9.9334 7.98047 10.0251 7.72567 10.2032 7.53618C10.3813 7.3467 10.6299 7.23947 10.89 7.24H11.11C11.6291 7.24 12.05 7.66085 12.05 8.18V13.98C12.0527 14.231 11.9548 14.4727 11.7782 14.6512C11.6017 14.8296 11.361 14.93 11.11 14.93H11.1ZM14.2 12.78H14.42H14.43C14.9452 12.7745 15.36 12.3553 15.36 11.84V10.35C15.3545 9.83476 14.9353 9.41997 14.42 9.42H14.2C13.6847 9.41997 13.2655 9.83476 13.26 10.35V11.84C13.26 12.3591 13.6809 12.78 14.2 12.78Z" fill="#696871"/>
</svg>
