<svg width="101" height="48" viewBox="0 0 101 48" fill="none" xmlns="http://www.w3.org/2000/svg">
<path d="M0 28.6099H3V43.3199H0V28.6099Z" fill="#696871"/>
<path fill-rule="evenodd" clip-rule="evenodd" d="M8.02952 33.3392C6.03442 34.1689 4.73594 36.1191 4.73999 38.2798C4.72645 39.6993 5.28504 41.0644 6.28972 42.0672C7.29441 43.07 8.66057 43.626 10.08 43.6098C12.2407 43.6098 14.1885 42.3077 15.0145 40.3111C15.8404 38.3144 15.3817 36.0168 13.8524 34.4904C12.3231 32.9639 10.0246 32.5095 8.02952 33.3392ZM10.041 36.0202C11.3142 35.9984 12.3671 37.0069 12.4 38.2798C12.4338 38.9103 12.2023 39.5262 11.7616 39.9783C11.3208 40.4304 10.7111 40.6775 10.08 40.6598C8.80659 40.6594 7.77154 39.6327 7.76084 38.3593C7.75015 37.086 8.76781 36.042 10.041 36.0202Z" fill="#696871"/>
<path fill-rule="evenodd" clip-rule="evenodd" d="M27.48 42.8198V33.2398L24.53 33.2698V34.2698C23.8116 33.3937 22.7218 32.9081 21.59 32.9598C18.7623 32.9598 16.47 35.2521 16.47 38.0798C16.47 40.9075 18.7623 43.1998 21.59 43.1998C22.7227 43.2564 23.8146 42.7699 24.53 41.8898V42.8198C24.5881 43.4378 24.3559 44.0478 23.9016 44.4708C23.4473 44.8938 22.8223 45.0819 22.21 44.9798C21.2706 45.0575 20.3789 44.5542 19.96 43.7098L17.38 45.1998C18.3884 46.8413 20.2287 47.7827 22.15 47.6398C24.83 47.6398 27.48 46.2098 27.48 42.8198ZM23.0951 35.7555C24.0029 36.1649 24.5708 37.0848 24.53 38.0798C24.5485 38.7236 24.2939 39.3453 23.829 39.7911C23.3642 40.2369 22.7324 40.4653 22.09 40.4198C21.0942 40.419 20.1988 39.8131 19.8277 38.889C19.4567 37.9649 19.6844 36.908 20.4031 36.2188C21.1219 35.5295 22.1873 35.3461 23.0951 35.7555Z" fill="#696871"/>
<path fill-rule="evenodd" clip-rule="evenodd" d="M32.4995 33.3392C30.5044 34.1689 29.2059 36.1191 29.21 38.2798C29.1964 39.6993 29.755 41.0644 30.7597 42.0672C31.7644 43.07 33.1305 43.626 34.55 43.6098C36.7107 43.6098 38.6585 42.3077 39.4844 40.3111C40.3104 38.3144 39.8517 36.0168 38.3224 34.4904C36.7931 32.9639 34.4946 32.5095 32.4995 33.3392ZM34.511 36.0202C35.7842 35.9984 36.837 37.0069 36.87 38.2798H36.85C36.8834 38.9068 36.6546 39.5193 36.2183 39.9708C35.782 40.4222 35.1776 40.6718 34.55 40.6598C33.2766 40.6594 32.2415 39.6327 32.2308 38.3593C32.2201 37.086 33.2378 36.042 34.511 36.0202Z" fill="#696871"/>
<path fill-rule="evenodd" clip-rule="evenodd" d="M43.1 28.7202C42.0949 28.7202 41.28 29.5351 41.28 30.5402C41.2855 31.5431 42.0971 32.3547 43.1 32.3602C44.1052 32.3602 44.92 31.5454 44.92 30.5402C44.92 29.5351 44.1052 28.7202 43.1 28.7202ZM44.59 33.2402H41.59V43.3202H44.59V33.2402Z" fill="#696871"/>
<path fill-rule="evenodd" clip-rule="evenodd" d="M56.3741 41.9458C57.2771 40.9452 57.7436 39.6258 57.6701 38.28C57.7408 36.9359 57.2731 35.619 56.3704 34.6206C55.4678 33.6222 54.2045 33.0246 52.8601 32.96C51.7273 32.9056 50.6287 33.356 49.8601 34.19V33.24H46.8601V47.38H49.8601V42.38C50.6287 43.2139 51.7273 43.6644 52.8601 43.61C54.2063 43.5454 55.4712 42.9464 56.3741 41.9458ZM52.2506 35.9408C53.5603 35.9298 54.6369 36.9707 54.6701 38.28H54.6501C54.6976 38.9423 54.4566 39.5929 53.989 40.0643C53.5214 40.5358 52.8728 40.7821 52.2101 40.74C50.9008 40.7068 49.8599 39.6301 49.871 38.3205C49.882 37.0108 50.941 35.9519 52.2506 35.9408Z" fill="#696871"/>
<path d="M67.01 40.2998C67.01 42.6198 65.01 43.6098 62.81 43.6098C61.012 43.769 59.2979 42.8189 58.48 41.2098L61.1 39.7198C61.3191 40.4693 62.031 40.9647 62.81 40.9098C63.54 40.9098 63.9 40.6798 63.9 40.2798C63.9 39.1698 58.9 39.7598 58.9 36.2798C58.9 34.0798 60.76 32.9698 62.9 32.9698C64.5081 32.921 66.0163 33.7478 66.84 35.1298L64.21 36.5098C63.9726 35.9703 63.4395 35.6214 62.85 35.6198C62.33 35.6198 62.01 35.8198 62.01 36.1898C62.05 37.3398 67.01 36.5698 67.01 40.2998Z" fill="#696871"/>
<path d="M78.0499 33.2402V43.3202H75.0499V42.3802C74.342 43.2274 73.2714 43.6847 72.1699 43.6102C70.1699 43.6102 68.3999 42.1602 68.3999 39.4302V33.2402H71.3999V38.9902C71.3465 39.4865 71.5192 39.9804 71.8701 40.3352C72.2211 40.6901 72.7131 40.8682 73.2099 40.8202C74.3099 40.8202 75.0799 40.1802 75.0799 38.7502V33.2402H78.0499Z" fill="#696871"/>
<path d="M95.3901 37.14V43.32H92.3901V37.4C92.3901 36.4 91.9001 35.74 90.9401 35.74C89.9801 35.74 89.3601 36.45 89.3601 37.64V43.32H86.3601V37.4C86.3601 36.4 85.8801 35.74 84.9101 35.74C83.9401 35.74 83.3401 36.45 83.3401 37.64V43.32H80.3401V33.24H83.3401V34.17C83.9771 33.3355 84.9933 32.8801 86.0401 32.96C87.0926 32.909 88.0947 33.4138 88.6801 34.29C89.3604 33.3746 90.4629 32.8724 91.6001 32.96C93.8801 32.96 95.3901 34.62 95.3901 37.14Z" fill="#696871"/>
<path d="M97.95 33.1802C99.1871 33.1802 100.19 32.1773 100.19 30.9402C100.19 29.7031 99.1871 28.7002 97.95 28.7002C96.7128 28.7002 95.71 29.7031 95.71 30.9402C95.71 32.1773 96.7128 33.1802 97.95 33.1802Z" fill="#696871"/>
<path d="M33.95 20.98C39.7434 20.98 44.44 16.2835 44.44 10.49C44.44 4.69653 39.7434 0 33.95 0C28.1565 0 23.46 4.69653 23.46 10.49C23.46 16.2835 28.1565 20.98 33.95 20.98Z" fill="#696871"/>
<path d="M57.3999 20.98C63.1934 20.98 67.8899 16.2835 67.8899 10.49C67.8899 4.69653 63.1934 0 57.3999 0C51.6064 0 46.9099 4.69653 46.9099 10.49C46.9099 16.2835 51.6064 20.98 57.3999 20.98Z" fill="#696871"/>
<rect x="0.0200195" width="20.97" height="20.97" fill="#696871"/>
</svg>
