<svg width="127" height="30" viewBox="0 0 127 30" fill="none" xmlns="http://www.w3.org/2000/svg">
<path fill-rule="evenodd" clip-rule="evenodd" d="M75.1924 8.28653C74.5824 8.56257 74.2014 9.18172 74.23 9.85066L74.25 9.86066C74.2552 10.2832 74.4295 10.6861 74.7339 10.9793C75.0383 11.2724 75.4475 11.4314 75.87 11.4207C76.5395 11.4201 77.1415 11.0125 77.3907 10.391C77.6399 9.76955 77.4863 9.05902 77.0026 8.596C76.5189 8.13299 75.8024 8.01048 75.1924 8.28653ZM39.2 9.03066H35.99V22.0307H39.2V9.03066ZM45.48 11.9907C42.48 11.9907 40.48 13.9207 40.48 17.1407C40.48 20.4307 42.41 22.3107 45.48 22.3107C48.55 22.3107 50.48 20.3607 50.48 17.1407C50.48 13.9207 48.48 11.9907 45.48 11.9907ZM47.3 17.1407C47.3 15.3707 46.61 14.3307 45.51 14.3307C44.41 14.3307 43.73 15.3307 43.73 17.1407C43.73 18.9507 44.41 19.9407 45.51 19.9407C46.61 19.9407 47.32 18.9507 47.32 17.1507L47.3 17.1407ZM54.86 22.7007H51.76L51.78 22.7107C51.96 24.5007 53.74 25.7707 56.52 25.7807C59.58 25.7807 61.66 24.3107 61.66 21.9607V12.2207H58.48V13.8334C57.937 12.7465 56.7969 12.075 55.57 12.1407C53.06 12.1407 51.57 14.0607 51.57 17.1407C51.57 20.2207 53.13 22.0107 55.48 22.0107C56.7378 22.1028 57.9232 21.4164 58.47 20.2816V22.0607C58.47 23.0407 57.83 23.7007 56.6 23.7007C55.8613 23.7954 55.15 23.3866 54.86 22.7007ZM58.48 17.1407C58.48 15.5707 57.76 14.5807 56.62 14.5807C55.48 14.5807 54.78 15.5807 54.78 17.1407C54.78 18.7007 55.47 19.6207 56.62 19.6207C57.77 19.6207 58.48 18.7707 58.48 17.1407ZM67.93 11.9907C64.93 11.9907 62.93 13.9207 62.93 17.1407H62.95C62.95 20.4307 64.87 22.3107 67.93 22.3107C70.99 22.3107 72.93 20.3607 72.93 17.1407C72.93 13.9207 70.93 11.9907 67.93 11.9907ZM69.75 17.1407C69.75 15.3707 69.05 14.3307 67.96 14.3307C66.87 14.3307 66.18 15.3307 66.18 17.1407C66.18 18.9507 66.86 19.9407 67.96 19.9407C69.06 19.9407 69.77 18.9507 69.77 17.1507L69.75 17.1407ZM74.23 12.2107H77.48V22.0707H74.28L74.23 12.2107ZM85.28 22.2107C87.73 22.2107 89.17 20.3507 89.17 17.1407L89.23 17.1507C89.23 13.9307 87.78 12.0807 85.26 12.1007C83.9596 12.0388 82.7599 12.7986 82.26 14.0007H82.2V12.2407H79.01V25.2407H82.22V20.3807H82.28C82.7975 21.5593 83.9952 22.2899 85.28 22.2107ZM85.9 17.1407C85.9 15.5807 85.17 14.5707 84.04 14.5707C82.91 14.5707 82.2 15.5707 82.19 17.1407C82.18 18.7107 82.91 19.7007 84.04 19.7007C85.17 19.7007 85.96 18.7707 85.96 17.1507L85.9 17.1407ZM99.03 15.2907C99.01 13.2507 97.34 11.9807 94.65 11.9807L94.71 11.9907C92 11.9907 90.32 13.2407 90.26 15.2007C90.26 16.7107 91.27 17.7207 93.2 18.1307L95.06 18.5207C95.83 18.6807 96.13 18.7707 96.13 19.3007C96.13 19.8307 95.69 20.1307 94.75 20.1307C93.81 20.1307 93.23 19.7007 93.14 18.9707H90.03C90.16 20.9807 91.95 22.3007 94.7 22.3007C97.45 22.3007 99.3 20.9407 99.3 18.9407C99.3 17.4507 98.5 16.6507 96.5 16.2307L94.44 15.8107C93.7 15.6607 93.33 15.5007 93.33 14.9907C93.33 14.4807 93.75 14.1407 94.63 14.1407C95.51 14.1407 96.1 14.5807 96.1 15.2907H99.03ZM110.05 22.0607H106.94V20.2107H106.88C106.521 21.4817 105.329 22.3337 104.01 22.2607C103.032 22.2925 102.088 21.9054 101.413 21.1968C100.739 20.4882 100.4 19.5255 100.48 18.5507V12.2207H103.69V17.8607C103.69 19.0207 104.3 19.6507 105.3 19.6507C105.775 19.6471 106.225 19.438 106.533 19.0775C106.842 18.7169 106.979 18.2403 106.91 17.7707V12.2207H110.11L110.05 22.0607ZM114.72 12.2107H111.6L111.62 22.0707H114.83V16.2507C114.778 15.8413 114.905 15.4295 115.179 15.121C115.453 14.8125 115.847 14.6374 116.26 14.6407C117.14 14.6407 117.63 15.1707 117.63 16.1707V22.0707H120.69V16.2307C120.634 15.826 120.759 15.4172 121.03 15.1116C121.301 14.806 121.692 14.634 122.1 14.6407C123.01 14.6407 123.48 15.2007 123.48 16.2007V22.0707H126.71V15.3807C126.776 14.4946 126.461 13.6224 125.845 12.9828C125.228 12.3432 124.368 11.9969 123.48 12.0307C122.122 11.9671 120.891 12.8247 120.48 14.1207H120.34C120.102 12.8215 118.916 11.9163 117.6 12.0307C116.299 12.0042 115.145 12.8589 114.79 14.1107H114.72V12.2107Z" fill="#696871"/>
<path fill-rule="evenodd" clip-rule="evenodd" d="M29.64 9.88087C29.6402 5.80726 27.1402 2.15113 23.3441 0.673391C19.548 -0.804353 15.234 0.199264 12.48 3.20087H0V29.5409H26.35V17.2309C28.4417 15.36 29.6381 12.6872 29.64 9.88087ZM24.57 9.88087C24.574 11.8313 23.4023 13.5919 21.6015 14.3411C19.8007 15.0903 17.7259 14.6804 16.3453 13.3027C14.9647 11.9249 14.5505 9.85099 15.296 8.04865C16.0414 6.24631 17.7996 5.07087 19.75 5.07087C22.4081 5.07086 24.5645 7.22276 24.57 9.88087ZM5.07 24.4709H21.28V19.6409C20.7743 19.7247 20.2626 19.7682 19.75 19.7709C14.2902 19.7654 9.86551 15.3407 9.86 9.88087C9.8644 9.34093 9.91458 8.80233 10.01 8.27087H5.07V24.4709Z" fill="#696871"/>
</svg>
