<svg width="118" height="24" viewBox="0 0 118 24" fill="none" xmlns="http://www.w3.org/2000/svg">
<path d="M37.8301 19.2045C37.2353 19.2368 36.647 19.0677 36.1601 18.7245C35.747 18.4183 35.5113 17.9283 35.5301 17.4145V8.14451C35.5202 8.06499 35.5476 7.98536 35.6042 7.92869C35.6609 7.87203 35.7405 7.84466 35.8201 7.85451H37.5001C37.6901 7.85451 37.7801 7.95451 37.7801 8.14451V16.6945C37.7801 17.0745 37.9501 17.2645 38.3001 17.2645C38.4484 17.2706 38.5968 17.2538 38.7401 17.2145C38.9401 17.2145 39.0501 17.2745 39.0601 17.4545L39.2101 18.7045C39.2246 18.7782 39.2066 18.8547 39.1606 18.9141C39.1146 18.9735 39.0451 19.0102 38.9701 19.0145C38.6021 19.1361 38.2176 19.2001 37.8301 19.2045Z" fill="#696871"/>
<path fill-rule="evenodd" clip-rule="evenodd" d="M41.28 18.1347C43.0213 19.5734 45.5388 19.5734 47.28 18.1347V18.1247C48.7861 16.5541 48.7861 14.0754 47.28 12.5047C45.5359 11.0739 43.0241 11.0739 41.28 12.5047C39.7358 14.0637 39.7358 16.5758 41.28 18.1347ZM45.72 16.8147C44.9084 17.5499 43.6716 17.5499 42.86 16.8147C42.1269 15.9718 42.1269 14.7176 42.86 13.8747C43.6716 13.1396 44.9084 13.1396 45.72 13.8747C46.4531 14.7176 46.4531 15.9718 45.72 16.8147Z" fill="#696871"/>
<path fill-rule="evenodd" clip-rule="evenodd" d="M57.9399 11.9746C57.9399 11.7846 57.8499 11.6846 57.6599 11.6846L55.9999 11.6946C55.922 11.6881 55.8453 11.7169 55.791 11.7731C55.7368 11.8294 55.7106 11.907 55.7199 11.9846V12.1446C55.1097 11.6779 54.3579 11.4344 53.5899 11.4546C52.5364 11.4171 51.5123 11.8065 50.7499 12.5346C49.2513 14.085 49.2513 16.5443 50.7499 18.0946C51.5088 18.8294 52.5344 19.223 53.5899 19.1846C54.3363 19.2058 55.0684 18.9771 55.6699 18.5346V19.1646C55.6903 19.628 55.5206 20.0795 55.1999 20.4146C54.8491 20.7349 54.3842 20.9006 53.9099 20.8746C53.5208 20.8825 53.1358 20.7931 52.7899 20.6146C52.5061 20.4612 52.2889 20.2084 52.1799 19.9046C52.1249 19.7697 51.9956 19.6796 51.8499 19.6746H50.1699C49.8999 19.6746 49.8999 19.7646 49.8999 19.9646C50.0406 20.784 50.515 21.5083 51.2099 21.9646C52.015 22.4865 52.9611 22.7483 53.9199 22.7146C54.9815 22.7614 56.0214 22.4041 56.8299 21.7146C57.5676 21.0685 57.9753 20.1247 57.9399 19.1446V11.9746ZM55.1499 16.8146C54.8033 17.2047 54.3015 17.4208 53.7799 17.4046C53.2528 17.4199 52.7452 17.2044 52.3899 16.8146C52.0313 16.4028 51.8419 15.8704 51.8599 15.3246C51.8379 14.7734 52.0316 14.2353 52.3999 13.8246C52.7544 13.4337 53.2625 13.2181 53.7899 13.2346C54.3067 13.2176 54.8045 13.4299 55.1499 13.8146C55.8338 14.6977 55.8338 15.9315 55.1499 16.8146Z" fill="#696871"/>
<path fill-rule="evenodd" clip-rule="evenodd" d="M60.57 18.1347C62.3141 19.5656 64.8259 19.5656 66.57 18.1347V18.1247C68.076 16.5541 68.076 14.0754 66.57 12.5047C64.8245 11.0778 62.3154 11.0778 60.57 12.5047C59.0626 14.0787 59.0626 16.5608 60.57 18.1347ZM63.58 17.3647C63.0457 17.3812 62.5272 17.1831 62.14 16.8147C61.4196 15.9671 61.4196 14.7224 62.14 13.8747C62.5272 13.5064 63.0457 13.3083 63.58 13.3247C64.1107 13.311 64.6252 13.5089 65.01 13.8747C65.7303 14.7224 65.7303 15.9671 65.01 16.8147C64.6252 17.1806 64.1107 17.3785 63.58 17.3647Z" fill="#696871"/>
<path fill-rule="evenodd" clip-rule="evenodd" d="M69.4 9.98484C69.9468 10.4634 70.7633 10.4634 71.31 9.98484C71.5523 9.75624 71.6895 9.4379 71.6895 9.10484C71.6895 8.77177 71.5523 8.45343 71.31 8.22484C70.7586 7.75904 69.9515 7.75904 69.4 8.22484C69.1578 8.45343 69.0205 8.77177 69.0205 9.10484C69.0205 9.4379 69.1578 9.75624 69.4 9.98484ZM69.85 18.7248C70.3383 19.0652 70.9256 19.234 71.52 19.2048C71.9109 19.2012 72.2988 19.1371 72.67 19.0148C72.7451 19.0105 72.8145 18.9739 72.8606 18.9144C72.9066 18.855 72.9246 18.7786 72.91 18.7048L72.76 17.4548C72.75 17.2748 72.64 17.2148 72.44 17.2148C72.2933 17.2534 72.1417 17.2703 71.99 17.2648C71.65 17.2648 71.48 17.0748 71.48 16.6948V11.9748C71.48 11.7848 71.39 11.6848 71.2 11.6848H69.52C69.4405 11.675 69.3609 11.7023 69.3042 11.759C69.2475 11.8157 69.2202 11.8953 69.23 11.9748V17.4148C69.2124 17.9261 69.4435 18.4143 69.85 18.7248Z" fill="#696871"/>
<path fill-rule="evenodd" clip-rule="evenodd" d="M81.9501 12.5247C81.1822 11.7925 80.1503 11.4028 79.0901 11.4447C78.1643 11.4246 77.2711 11.7862 76.6201 12.4447C76.2768 11.7739 75.5608 11.3783 74.8101 11.4447C74.4421 11.438 74.076 11.499 73.7301 11.6247C73.5852 11.6668 73.4894 11.8043 73.5001 11.9547V13.1347C73.5001 13.2947 73.6101 13.3747 73.8301 13.3747H74.1601C74.3227 13.3509 74.4871 13.4053 74.6033 13.5215C74.7195 13.6378 74.7739 13.8021 74.7501 13.9647V22.1647C74.7355 22.2426 74.7603 22.3225 74.8163 22.3785C74.8723 22.4345 74.9523 22.4593 75.0301 22.4447H76.7101C76.9001 22.4447 77.0001 22.3547 77.0001 22.1647V18.5547C77.6074 18.9932 78.3412 19.2214 79.0901 19.2047C80.1523 19.2475 81.1857 18.8536 81.9501 18.1147C83.4172 16.5402 83.4172 14.0993 81.9501 12.5247ZM78.9101 17.4042C78.3889 17.4042 77.8904 17.1913 77.5301 16.8147C77.1688 16.3887 76.9798 15.843 77.0001 15.2847C76.9768 14.7261 77.1662 14.1793 77.5301 13.7547C77.8904 13.3782 78.3889 13.1652 78.9101 13.1652C79.4312 13.1652 79.9298 13.3782 80.2901 13.7547C80.6685 14.172 80.8663 14.7221 80.8401 15.2847C80.863 15.8469 80.6657 16.3958 80.2901 16.8147C79.9298 17.1913 79.4312 17.4042 78.9101 17.4042Z" fill="#696871"/>
<path d="M87.77 19.2046C86.8723 19.2415 85.9822 19.0267 85.2 18.5846C84.5643 18.2017 84.1374 17.5503 84.04 16.8146C84.04 16.6146 84.11 16.5146 84.33 16.5146H85.8C85.9426 16.5201 86.0701 16.6051 86.13 16.7346C86.34 17.2746 86.89 17.5446 87.77 17.5446C88.077 17.5586 88.3827 17.4968 88.66 17.3646C88.8551 17.2765 88.9858 17.0881 89 16.8746C89 16.6146 88.84 16.4346 88.52 16.3146C88.1405 16.1883 87.7481 16.1044 87.35 16.0646C86.8785 16.0112 86.4109 15.9277 85.95 15.8146C85.5019 15.7131 85.0944 15.4798 84.78 15.1446C84.4059 14.6841 84.2397 14.0889 84.3212 13.5011C84.4028 12.9134 84.7247 12.3859 85.21 12.0446C85.9308 11.5854 86.7765 11.3618 87.63 11.4046C88.4564 11.3766 89.274 11.5811 89.99 11.9946C90.5744 12.3256 90.9785 12.9023 91.09 13.5646C91.09 13.7646 91 13.8646 90.82 13.8646H89.34C89.2125 13.8721 89.0934 13.8007 89.04 13.6846C88.9411 13.4477 88.755 13.258 88.52 13.1546C88.255 13.0159 87.959 12.9471 87.66 12.9546C87.3669 12.9386 87.0745 12.9971 86.81 13.1246C86.6194 13.1981 86.4927 13.3803 86.49 13.5846C86.5031 13.8653 86.6979 14.1046 86.97 14.1746C87.3541 14.3193 87.7533 14.42 88.16 14.4746C88.6277 14.5361 89.0917 14.6229 89.55 14.7346C89.9982 14.836 90.4057 15.0694 90.72 15.4046C91.0597 15.7776 91.2361 16.2708 91.21 16.7746C91.2276 17.4778 90.8745 18.1385 90.28 18.5146C89.5329 18.9942 88.6574 19.2349 87.77 19.2046Z" fill="#696871"/>
<path d="M101.78 18.7046C101.792 18.7763 101.774 18.8496 101.73 18.9079C101.687 18.9663 101.622 19.0047 101.55 19.0146C101.185 19.1338 100.804 19.1978 100.42 19.2046C99.6471 19.2846 98.8886 18.9546 98.4201 18.3346C97.7137 18.9419 96.8004 19.2535 95.8701 19.2046C94.9967 19.2448 94.1469 18.9143 93.5301 18.2946C92.9181 17.6457 92.5967 16.7755 92.6401 15.8846V11.9746C92.6401 11.7846 92.7301 11.6846 92.9201 11.6846H94.6001C94.7901 11.6846 94.8801 11.7846 94.8801 11.9746V15.5846C94.8618 16.0343 95.0156 16.4742 95.3101 16.8146C95.6075 17.1301 96.0269 17.3015 96.4601 17.2846C96.9028 17.3039 97.3349 17.1455 97.6601 16.8446C97.9682 16.5272 98.131 16.0964 98.1101 15.6546V11.9746C98.1101 11.7846 98.2001 11.6846 98.3901 11.6846H100.09C100.28 11.6846 100.37 11.7846 100.37 11.9746V16.6846C100.37 17.0746 100.54 17.2646 100.87 17.2646C101.025 17.2706 101.18 17.2537 101.33 17.2146C101.407 17.1931 101.489 17.2079 101.553 17.2546C101.618 17.3014 101.657 17.3751 101.66 17.4546L101.78 18.7046Z" fill="#696871"/>
<path d="M117.67 18.7048C117.688 18.7773 117.673 18.8541 117.628 18.9141C117.584 18.9741 117.515 19.0111 117.44 19.0148C117.068 19.1357 116.681 19.1998 116.29 19.2048C115.695 19.2355 115.108 19.0666 114.62 18.7248C114.192 18.4275 113.94 17.936 113.95 17.4148V15.0648C113.971 14.6164 113.821 14.1767 113.53 13.8348C113.246 13.5183 112.835 13.3459 112.41 13.3648C112.027 13.3504 111.658 13.5125 111.41 13.8048C111.146 14.1399 111.011 14.5587 111.03 14.9848V18.6748C111.03 18.8648 110.94 18.9648 110.75 18.9648H109.06C108.98 18.9747 108.901 18.9473 108.844 18.8907C108.788 18.834 108.76 18.7544 108.77 18.6748V15.0648C108.792 14.6213 108.653 14.1847 108.38 13.8348C108.133 13.5373 107.767 13.365 107.38 13.3648C106.967 13.3482 106.567 13.5082 106.28 13.8048C105.994 14.1292 105.847 14.553 105.87 14.9848V18.6748C105.88 18.7544 105.852 18.834 105.796 18.8907C105.739 18.9473 105.66 18.9747 105.58 18.9648H103.95C103.76 18.9648 103.67 18.8648 103.67 18.6748V13.9648C103.694 13.8022 103.639 13.6379 103.523 13.5216C103.407 13.4054 103.243 13.351 103.08 13.3748H102.75C102.53 13.3748 102.42 13.2948 102.42 13.1348V11.9548C102.409 11.8044 102.505 11.6669 102.65 11.6248C102.996 11.4991 103.362 11.4381 103.73 11.4448C104.451 11.3834 105.143 11.7412 105.51 12.3648C106.192 11.7184 107.112 11.3851 108.05 11.4448C108.964 11.4002 109.844 11.7939 110.42 12.5048C111.09 11.7765 112.052 11.3874 113.04 11.4448C113.922 11.4035 114.782 11.7335 115.41 12.3548C116.024 13.0025 116.346 13.8735 116.3 14.7648V16.6948C116.3 17.0748 116.47 17.2648 116.79 17.2648C116.945 17.2721 117.1 17.2552 117.25 17.2148C117.457 17.2148 117.567 17.2948 117.58 17.4548L117.67 18.7048Z" fill="#696871"/>
<path fill-rule="evenodd" clip-rule="evenodd" d="M0.41 10.3847C1.92808 4.28306 7.40732 0 13.695 0C19.9827 0 25.4619 4.28306 26.98 10.3847H25.78C23.7557 10.3549 21.7729 10.9599 20.11 12.1147C20.014 12.1842 19.9138 12.2477 19.81 12.3047H19.67C19.5662 12.2477 19.466 12.1842 19.37 12.1147C15.9385 9.80724 11.4515 9.80724 8.02 12.1147C7.92403 12.1842 7.82384 12.2477 7.72 12.3047H7.58C7.47616 12.2477 7.37597 12.1842 7.28 12.1147C5.61713 10.9599 3.63432 10.3549 1.61 10.3847H0.41ZM23.62 16.6547C24.236 16.175 24.9995 15.924 25.78 15.9447H27.39V12.7347H25.78C24.4052 12.7181 23.0619 13.146 21.95 13.9547C20.6657 14.9016 18.9143 14.9016 17.63 13.9547C15.295 12.3293 12.195 12.3293 9.86 13.9547C8.57565 14.9016 6.82435 14.9016 5.54 13.9547C4.4144 13.1357 3.0518 12.7072 1.66 12.7347H0V15.9447H1.61C2.39051 15.924 3.15399 16.175 3.77 16.6547C6.10094 18.2813 9.19906 18.2813 11.53 16.6547C12.1468 16.1765 12.9097 15.9257 13.69 15.9447C14.4708 15.9223 15.2348 16.1735 15.85 16.6547C18.185 18.2801 21.285 18.2801 23.62 16.6547ZM25.78 21.6847C24.9995 21.664 24.236 21.915 23.62 22.3947C21.285 24.0201 18.185 24.0201 15.85 22.3947C15.2348 21.9135 14.4708 21.6623 13.69 21.6847C12.9097 21.6657 12.1468 21.9165 11.53 22.3947C9.19906 24.0213 6.10094 24.0213 3.77 22.3947C3.15399 21.915 2.39051 21.664 1.61 21.6847H0V18.4747H1.66C3.0518 18.4472 4.4144 18.8757 5.54 19.6947C6.82435 20.6416 8.57565 20.6416 9.86 19.6947C12.195 18.0693 15.295 18.0693 17.63 19.6947C18.9143 20.6416 20.6657 20.6416 21.95 19.6947C23.0619 18.886 24.4052 18.4581 25.78 18.4747H27.39V21.6847H25.78Z" fill="#696871"/>
</svg>
