<svg width="200" height="40" viewBox="0 0 200 40" fill="none" xmlns="http://www.w3.org/2000/svg">
<path d="M29.9254 17.2103C28.7971 18.3455 28.2332 19.9245 28.3872 21.5176L28.3607 21.4912C28.519 23.366 27.8427 25.2153 26.5123 26.5457C25.1818 27.8761 23.3326 28.5524 21.4577 28.3941L21.4842 28.4206C19.2142 28.2093 17.0555 29.444 16.0867 31.5078C15.118 33.5715 15.5473 36.0211 17.1601 37.6325C18.7729 39.2438 21.2228 39.6709 23.2857 38.7003C25.3486 37.7297 26.5814 35.5698 26.368 33.3L26.396 33.3265C26.2377 31.4516 26.914 29.6024 28.2444 28.272C29.5748 26.9415 31.4241 26.2653 33.2989 26.4235L33.271 26.3971C35.7658 26.6214 38.0872 25.1002 38.8774 22.7233C39.6676 20.3463 38.719 17.738 36.5864 16.4241C34.4538 15.1101 31.6976 15.4357 29.9298 17.2103H29.9254Z" fill="#5454D4"/>
<path d="M19.0768 24.9529L19.0489 24.9264C20.643 25.0871 22.2251 24.5233 23.3585 23.3908C24.4919 22.2582 25.0568 20.6766 24.8974 19.0823L24.9253 19.1088C24.7671 17.2339 25.4433 15.3847 26.7738 14.0543C28.1042 12.7238 29.9534 12.0476 31.8283 12.2058L31.8003 12.1794C34.0705 12.3926 36.2306 11.1592 37.2008 9.0957C38.171 7.03224 37.743 4.58194 36.1307 2.96962C34.5183 1.35729 32.068 0.929258 30.0046 1.89948C27.9411 2.8697 26.7077 5.02976 26.9209 7.29995L26.8944 7.27201C27.0532 9.14697 26.3771 10.9965 25.0466 12.3271C23.716 13.6576 21.8665 14.3337 19.9915 14.1749L20.018 14.2029C18.4238 14.0423 16.8417 14.606 15.7083 15.7385C14.5749 16.8711 14.01 18.4527 14.1694 20.047L14.143 20.0205C14.3007 21.8952 13.6243 23.7442 12.294 25.0745C10.9637 26.4048 9.11473 27.0812 7.24003 26.9235L7.2665 26.9499C4.99632 26.7368 2.83625 27.9702 1.86603 30.0336C0.89581 32.0971 1.32384 34.5474 2.93617 36.1597C4.5485 37.772 6.99879 38.2001 9.06225 37.2298C11.1257 36.2596 12.3591 34.0995 12.1459 31.8294L12.1739 31.8558C12.0156 29.981 12.6919 28.1317 14.0223 26.8013C15.3527 25.4709 17.202 24.7946 19.0768 24.9529Z" fill="#FF7143"/>
<path d="M9.22099 22.0016C10.3495 20.8665 10.9129 19.2873 10.7578 17.6942L10.7857 17.7207C10.6273 15.8453 11.304 13.9955 12.6351 12.665C13.9662 11.3344 15.8163 10.6586 17.6916 10.8178L17.6636 10.7913C19.933 11.0039 22.0921 9.7706 23.0617 7.7078C24.0313 5.64499 23.6033 3.19566 21.9916 1.58393C20.3798 -0.0277992 17.9305 -0.455804 15.8677 0.513824C13.8049 1.48345 12.5716 3.64248 12.7842 5.91187L12.7578 5.8854C12.916 7.76024 12.2397 9.60949 10.9093 10.9399C9.5789 12.2703 7.72964 12.9466 5.85481 12.7883L5.88128 12.8148C3.38658 12.5911 1.06564 14.1127 0.275915 16.4896C-0.513813 18.8666 0.435108 21.4746 2.56768 22.7882C4.70026 24.1019 7.45632 23.7762 9.22393 22.0016H9.22099Z" fill="#5454D4"/>
<path d="M54.7754 7.33398H59.143V28.5884H54.7754V7.33398Z" fill="#19191B"/>
<path fill-rule="evenodd" clip-rule="evenodd" d="M66.3585 14.1595C63.4762 15.3635 61.6042 18.1866 61.6167 21.3103C61.6015 23.3585 62.4106 25.3268 63.8619 26.7723C65.3132 28.2177 67.2847 29.0189 69.3328 28.9956C72.4565 28.9955 75.2721 27.1122 76.4646 24.2251C77.657 21.3379 76.9912 18.0167 74.778 15.8123C72.5648 13.6079 69.2409 12.9554 66.3585 14.1595ZM69.2708 18.0535C71.1086 18.0196 72.6305 19.4728 72.6814 21.3103C72.731 22.2212 72.3974 23.1113 71.7613 23.7652C71.1253 24.4191 70.2448 24.7773 69.3328 24.7529C67.4947 24.753 65.9998 23.272 65.9828 21.4339C65.9658 19.5959 67.433 18.0874 69.2708 18.0535Z" fill="#19191B"/>
<path fill-rule="evenodd" clip-rule="evenodd" d="M94.4563 27.8545V14.031L90.2049 14.0281V15.5133C89.1678 14.2443 87.5904 13.5421 85.9534 13.6207C81.9601 13.7466 78.7881 17.0203 78.7881 21.0156C78.7881 25.0109 81.9601 28.2845 85.9534 28.4104C87.5904 28.489 89.1678 27.7868 90.2049 26.5178V27.8486C90.278 28.7267 89.9481 29.5905 89.3082 30.1963C88.6684 30.8021 87.788 31.0843 86.9152 30.9633C85.5346 31.1043 84.2116 30.3733 83.5961 29.1295L79.8696 31.2839C81.3275 33.6593 83.9902 35.0214 86.7696 34.8133C90.6416 34.8133 94.4563 32.7457 94.4563 27.8545ZM88.1309 17.6533C89.4448 18.2458 90.2664 19.5777 90.2063 21.0178C90.2335 21.9476 89.8663 22.8456 89.1953 23.4899C88.5244 24.1343 87.6123 24.4649 86.6843 24.4001C85.243 24.4019 83.9454 23.5271 83.4066 22.1903C82.8677 20.8535 83.1958 19.3234 84.2353 18.3251C85.2749 17.3267 86.817 17.0608 88.1309 17.6533Z" fill="#19191B"/>
<path fill-rule="evenodd" clip-rule="evenodd" d="M101.672 14.1595C98.7894 15.3635 96.9174 18.1866 96.9299 21.3103C96.9148 23.3585 97.7239 25.3268 99.1751 26.7723C100.626 28.2177 102.598 29.0189 104.646 28.9956C107.77 28.9955 110.585 27.1122 111.778 24.2251C112.97 21.3379 112.304 18.0167 110.091 15.8123C107.878 13.6079 104.554 12.9554 101.672 14.1595ZM104.584 18.0535C106.422 18.0196 107.944 19.4728 107.995 21.3103C108.044 22.2212 107.711 23.1113 107.075 23.7652C106.439 24.4191 105.558 24.7773 104.646 24.7529C102.808 24.753 101.313 23.272 101.296 21.4339C101.279 19.5959 102.746 18.0874 104.584 18.0535Z" fill="#19191B"/>
<path fill-rule="evenodd" clip-rule="evenodd" d="M116.017 7.70835C115.037 8.11396 114.399 9.06952 114.399 10.1295C114.413 11.5708 115.578 12.7357 117.02 12.75C118.079 12.75 119.035 12.1116 119.441 11.1323C119.846 10.1531 119.622 9.0259 118.873 8.27642C118.123 7.52694 116.996 7.30273 116.017 7.70835ZM119.209 14.0309H114.84L114.834 28.5897H119.209V14.0309Z" fill="#19191B"/>
<path fill-rule="evenodd" clip-rule="evenodd" d="M136.187 26.6003C137.493 25.1577 138.17 23.254 138.068 21.3106C138.171 19.3669 137.494 17.4625 136.188 16.0196C134.881 14.5766 133.054 13.7143 131.109 13.6238C129.47 13.5345 127.878 14.1861 126.772 15.3988V14.0312H122.405V34.4121H126.772V27.2194C127.878 28.433 129.47 29.0853 131.109 28.9959C133.053 28.905 134.881 28.0428 136.187 26.6003ZM130.179 17.9332C132.081 17.9013 133.653 19.4089 133.7 21.3106C133.766 22.2557 133.426 23.1839 132.764 23.8622C132.103 24.5404 131.184 24.9042 130.237 24.8621C128.335 24.8623 126.788 23.3288 126.772 21.4266C126.756 19.5244 128.277 17.965 130.179 17.9332Z" fill="#19191B"/>
<path d="M151.546 24.2209C151.546 27.5694 148.636 28.9959 145.491 28.9959C142.892 29.2313 140.412 27.8586 139.231 25.5312L143.015 23.3767C143.33 24.4603 144.36 25.1761 145.486 25.0944C146.533 25.0944 147.058 24.7738 147.058 24.1929C147.058 22.59 139.894 23.4356 139.894 18.3988C139.894 15.2238 142.574 13.6238 145.602 13.6238C147.92 13.5504 150.095 14.7437 151.278 16.7385L147.552 18.7473C147.218 17.9677 146.45 17.4634 145.602 17.4665C144.844 17.4665 144.378 17.7606 144.378 18.2812C144.384 19.9415 151.546 18.8341 151.546 24.2209Z" fill="#19191B"/>
<path d="M167.5 14.0308V28.5896H163.133V27.2205C162.111 28.446 160.563 29.1067 158.971 28.9969C156.03 28.9969 153.53 26.9014 153.53 22.9675V14.0308H157.897V22.3278C157.823 23.0296 158.062 23.7284 158.55 24.2384C159.038 24.7483 159.725 25.0177 160.43 24.9749C162.031 24.9749 163.137 24.044 163.137 21.9763V14.0352L167.5 14.0308Z" fill="#19191B"/>
<path d="M192.545 19.6499V28.5881H188.177V20.0278C188.177 18.5719 187.478 17.641 186.081 17.641C184.625 17.641 183.809 18.6602 183.809 20.3778V28.5881H179.443V20.0278C179.443 18.5719 178.745 17.641 177.346 17.641C175.89 17.641 175.075 18.6602 175.075 20.3778V28.5881H170.708V14.0293H175.075V15.3675C175.995 14.1612 177.464 13.5039 178.977 13.6219C180.497 13.5476 181.945 14.2767 182.79 15.5425C183.774 14.2192 185.368 13.494 187.012 13.6219C190.355 13.6234 192.545 16.0102 192.545 19.6499Z" fill="#19191B"/>
<path d="M196.239 13.9413C198.029 13.9413 199.48 12.4902 199.48 10.7002C199.48 8.91011 198.029 7.45898 196.239 7.45898C194.449 7.45898 192.998 8.91011 192.998 10.7002C192.998 12.4902 194.449 13.9413 196.239 13.9413Z" fill="#19191B"/>
</svg>
